<svg xmlns="http://www.w3.org/2000/svg" version="1.1" xmlns:xlink="http://www.w3.org/1999/xlink" xmlns:svgjs="http://svgjs.dev/svgjs" width="2000" height="212" viewBox="0 0 2000 212"><g transform="matrix(1,0,0,1,-1.2121212121212466,1.1916514577518598)"><svg viewBox="0 0 396 42" data-background-color="#ffffff" preserveAspectRatio="xMidYMid meet" height="212" width="2000" xmlns="http://www.w3.org/2000/svg" xmlns:xlink="http://www.w3.org/1999/xlink"><g id="tight-bounds" transform="matrix(1,0,0,1,0.2400000000000091,-0.23608189257348045)"><svg viewBox="0 0 395.52 42.472163785146975" height="42.472163785146975" width="395.52"><g><svg viewBox="0 0 499.1125224331831 53.59625" height="42.472163785146975" width="395.52"><g><svg viewBox="0 0 499.1125224331831 53.59625" height="53.59625" width="499.1125224331831"><g id="textblocktransform"><svg viewBox="0 0 499.1125224331831 53.59625" height="53.59625" width="499.1125224331831" id="textblock"><g><svg viewBox="0 0 499.1125224331831 53.59625" height="53.59625" width="499.1125224331831"><g><svg><g></g><g></g></svg></g><g><svg><g><svg></svg></g><g></g></svg></g><g id="text-0"><svg viewBox="0 0 499.1125224331831 53.59625" height="53.59625" width="499.1125224331831"><g transform="matrix(1,0,0,1,0,10.523124999999997)"><svg width="111.22500000000001" viewBox="1.23 -31.95 111.21 32.55" height="32.550000000000004" data-palette-color="#b2d0c4"><path d="M5.43 0L1.23 0 11.23-31.95 17.78-31.95 27.8 0 23.6 0 14.83-29.15 14.2-29.15 5.43 0ZM21.78-9.43L7.23-9.43 7.23-12.88 21.78-12.88 21.78-9.43ZM44.52-9.6L40.95-9.6 29.97-31.95 34.35-31.95 40.22-19.73 42.57-14.43 42.9-14.43 45.25-19.73 51.1-31.95 55.5-31.95 44.52-9.6ZM44.77 0L40.7 0 40.7-13.48 44.77-13.48 44.77 0ZM73.47 0L63.02 0 63.02-3.43 73.07-3.43Q76.32-3.43 77.68-4.81 79.05-6.2 79.05-8.65L79.05-8.65 79.05-9.55Q79.05-12.05 77.66-13.43 76.27-14.8 72.82-14.8L72.82-14.8 63.05-14.8 63.05-18.07 72.77-18.07Q75.84-18.07 77.16-19.41 78.47-20.75 78.47-23.13L78.47-23.13 78.47-23.58Q78.47-25.93 77.21-27.24 75.95-28.55 72.75-28.55L72.75-28.55 62.95-28.55 62.95-31.95 73.12-31.95Q78.22-31.95 80.42-29.93 82.62-27.9 82.62-24.23L82.62-24.23 82.62-23.73Q82.62-20.8 81.22-19.13 79.82-17.45 76.87-17.13L76.87-17.13 76.84-16.98Q80.22-16.48 81.75-14.63 83.27-12.78 83.27-9.47L83.27-9.47 83.27-8.45Q83.27-4.48 80.97-2.24 78.67 0 73.47 0L73.47 0ZM64.3 0L60.2 0 60.2-31.95 64.3-31.95 64.3 0ZM100.72 0.6L100.72 0.6Q94.72 0.6 91.86-2.49 88.99-5.58 88.99-11.48L88.99-11.48 88.99-31.95 93.14-31.95 93.14-11.38Q93.14-7.28 94.94-5.11 96.74-2.95 100.72-2.95L100.72-2.95Q104.72-2.95 106.5-5.11 108.29-7.28 108.29-11.38L108.29-11.38 108.29-31.95 112.44-31.95 112.44-11.48Q112.44-5.58 109.59-2.49 106.74 0.6 100.72 0.6Z" opacity="1" transform="matrix(1,0,0,1,0,0)" fill="#b2d0c4" class="undefined-yy-0"></path></svg></g><g><svg xmlns="http://www.w3.org/2000/svg" xmlns:xlink="http://www.w3.org/1999/xlink" version="1.1" x="123.87875000000001" y="0" viewBox="10.42 10.94 79.221 80.294" enable-background="new 0 0 100 100" xml:space="preserve" height="53.59625" width="52.88002243318306" class="icon-cg-0" data-fill-palette-color="accent" id="cg-0"><path d="M50.03 15.185l27.056 16.907H22.975L50.03 15.185M50.03 10.94L10.42 35.692h79.221L50.03 10.94 50.03 10.94z" fill="#000000" data-fill-palette-color="accent"></path><g fill="#c6bba8" data-fill-palette-color="accent"><rect x="19.862" y="44.013" width="7.2" height="35.341" fill="#000000" data-fill-palette-color="accent"></rect></g><g fill="#c6bba8" data-fill-palette-color="accent"><rect x="33.147" y="44.013" width="7.2" height="35.341" fill="#000000" data-fill-palette-color="accent"></rect></g><g fill="#c6bba8" data-fill-palette-color="accent"><rect x="46.431" y="44.013" width="7.2" height="35.341" fill="#000000" data-fill-palette-color="accent"></rect></g><g fill="#c6bba8" data-fill-palette-color="accent"><rect x="59.715" y="44.013" width="7.2" height="35.341" fill="#000000" data-fill-palette-color="accent"></rect></g><g fill="#c6bba8" data-fill-palette-color="accent"><rect x="72.998" y="44.013" width="7.2" height="35.341" fill="#000000" data-fill-palette-color="accent"></rect></g><rect x="16.349" y="38.058" width="67.364" height="3.6" fill="#000000" data-fill-palette-color="accent"></rect><rect x="16.349" y="81.709" width="67.364" height="3.6" fill="#000000" data-fill-palette-color="accent"></rect><rect x="11.885" y="87.634" width="76.291" height="3.6" fill="#000000" data-fill-palette-color="accent"></rect><circle cx="50.031" cy="23.316" r="4.3" fill="#000000" data-fill-palette-color="accent"></circle></svg></g><g transform="matrix(1,0,0,1,189.41252243318309,9.948125000000001)"><svg width="309.7" viewBox="1.23 -32.52 309.66999999999996 33.120000000000005" height="33.125" data-palette-color="#b2d0c4"><path d="M5.43 0L1.23 0 11.23-31.95 17.78-31.95 27.8 0 23.6 0 14.83-29.15 14.2-29.15 5.43 0ZM21.78-9.43L7.23-9.43 7.23-12.88 21.78-12.88 21.78-9.43ZM43.47 0.58L43.47 0.58Q37.55 0.58 34.59-2.75 31.62-6.08 31.62-12.2L31.62-12.2 31.62-19.78Q31.62-25.9 34.57-29.21 37.52-32.52 43.42-32.52L43.42-32.52Q45.32-32.52 46.89-32.18 48.45-31.83 49.67-31.28 50.9-30.73 51.75-30.13L51.75-30.13 52.1-26.28Q50.62-27.33 48.64-28.11 46.65-28.9 43.97-28.9L43.97-28.9Q39.95-28.9 37.9-26.51 35.85-24.13 35.85-19.73L35.85-19.73 35.85-12.35Q35.85-7.98 37.92-5.56 40-3.15 44.12-3.15L44.12-3.15Q46.77-3.15 48.81-3.93 50.85-4.7 52.35-5.83L52.35-5.83 52-1.88Q51.15-1.28 49.9-0.7 48.65-0.13 47.03 0.23 45.42 0.58 43.47 0.58ZM59.82 0L55.62 0 65.62-31.95 72.17-31.95 82.2 0 78 0 69.22-29.15 68.59-29.15 59.82 0ZM76.17-9.43L61.62-9.43 61.62-12.88 76.17-12.88 76.17-9.43ZM97.89 0L89.99 0 89.99-3.5 97.74-3.5Q101.99-3.5 104.13-5.81 106.27-8.13 106.27-12.43L106.27-12.43 106.27-19.55Q106.27-23.88 104.13-26.18 101.99-28.48 97.74-28.48L97.74-28.48 89.97-28.48 89.97-31.95 97.89-31.95Q104.09-31.95 107.27-28.76 110.44-25.58 110.44-19.58L110.44-19.58 110.44-12.4Q110.44-6.43 107.27-3.21 104.09 0 97.89 0L97.89 0ZM91.29 0L87.19 0 87.19-31.95 91.29-31.95 91.29 0ZM120.87 0L116.77 0 116.77-31.95 120.87-31.95 120.87 0ZM136.69 0L117.99 0 117.99-3.48 136.69-3.48 136.69 0ZM136.17-14.58L119.12-14.58 119.12-18.03 136.17-18.03 136.17-14.58ZM136.54-28.48L117.97-28.48 117.97-31.95 136.54-31.95 136.54-28.48ZM146.41 0L142.39 0 143.61-31.95 150.04-31.95 157.61-8.85 157.96-8.85 165.54-31.95 171.99-31.95 173.21 0 169.19 0 168.74-13.48 168.31-27.63 167.86-27.63 159.96-3.68 155.64-3.68 147.74-27.63 147.29-27.63 146.84-13.45 146.41 0ZM184.44-31.95L184.44 0 180.29 0 180.29-31.95 184.44-31.95ZM202.71 0.58L202.71 0.58Q196.78 0.58 193.82-2.75 190.86-6.08 190.86-12.2L190.86-12.2 190.86-19.78Q190.86-25.9 193.81-29.21 196.76-32.52 202.66-32.52L202.66-32.52Q204.56-32.52 206.12-32.18 207.68-31.83 208.91-31.28 210.13-30.73 210.98-30.13L210.98-30.13 211.33-26.28Q209.86-27.33 207.87-28.11 205.88-28.9 203.21-28.9L203.21-28.9Q199.18-28.9 197.13-26.51 195.08-24.13 195.08-19.73L195.08-19.73 195.08-12.35Q195.08-7.98 197.16-5.56 199.23-3.15 203.36-3.15L203.36-3.15Q206.01-3.15 208.05-3.93 210.08-4.7 211.58-5.83L211.58-5.83 211.23-1.88Q210.38-1.28 209.13-0.7 207.88-0.13 206.27 0.23 204.66 0.58 202.71 0.58ZM230.48-31.95L230.48 0 226.33 0 226.33-31.95 230.48-31.95ZM249.78-31.95L249.78 0 245.63 0 245.63-31.95 249.78-31.95ZM228.7-14.73L228.7-18.23 247.28-18.23 247.28-14.73 228.7-14.73ZM268.8 0.6L268.8 0.6Q262.8 0.6 259.94-2.49 257.08-5.58 257.08-11.48L257.08-11.48 257.08-31.95 261.23-31.95 261.23-11.38Q261.23-7.28 263.03-5.11 264.83-2.95 268.8-2.95L268.8-2.95Q272.8-2.95 274.59-5.11 276.38-7.28 276.38-11.38L276.38-11.38 276.38-31.95 280.53-31.95 280.53-11.48Q280.53-5.58 277.68-2.49 274.83 0.6 268.8 0.6ZM301.1 0L290.65 0 290.65-3.43 300.7-3.43Q303.95-3.43 305.31-4.81 306.67-6.2 306.67-8.65L306.67-8.65 306.67-9.55Q306.67-12.05 305.29-13.43 303.9-14.8 300.45-14.8L300.45-14.8 290.67-14.8 290.67-18.07 300.4-18.07Q303.47-18.07 304.79-19.41 306.1-20.75 306.1-23.13L306.1-23.13 306.1-23.58Q306.1-25.93 304.84-27.24 303.57-28.55 300.37-28.55L300.37-28.55 290.57-28.55 290.57-31.95 300.75-31.95Q305.85-31.95 308.05-29.93 310.25-27.9 310.25-24.23L310.25-24.23 310.25-23.73Q310.25-20.8 308.85-19.13 307.45-17.45 304.5-17.13L304.5-17.13 304.47-16.98Q307.85-16.48 309.37-14.63 310.9-12.78 310.9-9.47L310.9-9.47 310.9-8.45Q310.9-4.48 308.6-2.24 306.3 0 301.1 0L301.1 0ZM291.92 0L287.82 0 287.82-31.95 291.92-31.95 291.92 0Z" opacity="1" transform="matrix(1,0,0,1,0,0)" fill="#b2d0c4" class="undefined-yy-1"></path></svg></g></svg></g></svg></g></svg></g></svg></g><g></g></svg></g><defs></defs></svg><rect width="395.52" height="42.472163785146975" fill="none" stroke="none" visibility="hidden"></rect></g></svg></g></svg>