<svg xmlns="http://www.w3.org/2000/svg" version="1.1" xmlns:xlink="http://www.w3.org/1999/xlink" xmlns:svgjs="http://svgjs.dev/svgjs" width="2000" height="1500" viewBox="0 0 2000 1500"><rect width="2000" height="1500" fill="#ffffff"></rect><g transform="matrix(0.75,0,0,0.75,250,0.0017152733560124034)"><svg viewBox="0 0 280 280" data-background-color="#ffffff" preserveAspectRatio="xMidYMid meet" height="2000" width="2000" xmlns="http://www.w3.org/2000/svg" xmlns:xlink="http://www.w3.org/1999/xlink"><g id="tight-bounds" transform="matrix(1,0,0,1,0,0.00016810313510973174)"><svg viewBox="0 0 280 280" height="280" width="280"><g><svg viewBox="0 0 280 280" height="280" width="280"><g><svg viewBox="0 0 280 280" height="280" width="280"><g id="textblocktransform"><svg viewBox="0 0 280 280" height="280" width="280" id="textblock"><g><svg viewBox="0 0 280 280" height="280" width="280"><g transform="matrix(1,0,0,1,97.63316858739893,90.50252531694167)"><svg viewBox="0 0 84.73366282520213 98.99494936611666" height="98.99494936611666" width="84.73366282520213"><g id="icon-0"><svg xmlns="http://www.w3.org/2000/svg" xmlns:xlink="http://www.w3.org/1999/xlink" version="1.1" x="0" y="0" viewBox="11.500171379700205 5.025 77.09872804473036 90.07499999999999" enable-background="new 0 0 100 100" xml:space="preserve" height="98.99494936611666" width="84.73366282520213" class="icon-xg-0" data-fill-palette-color="accent" id="xg-0"><g fill="#f84e45" data-fill-palette-color="accent"><path d="M84.9 48.9c-0.4-0.2-0.8-0.4-1.2-0.5-0.2-0.1-0.7-0.2-1.4-0.2-2-9.3-7.3-15.1-8.3-16.1l0-9.5 2.6-1.3 3.1-1.9c0.2-0.1 0.3-0.3 0.2-0.5 0-0.2-0.1-0.4-0.3-0.4L49.7 5.1c-0.1-0.1-0.3-0.1-0.4 0L19.5 18.5c-0.2 0.1-0.3 0.2-0.3 0.4 0 0.2 0.1 0.4 0.2 0.5l1.2 0.8 2.5 1.3 0 8.6c0 0 0 0 0 0l-3.9 8.4c-0.1 0.1-0.1 0.2 0 0.4l0 0.1c0 0.2 0 0.3 0.1 0.4 0.1 0.1 0.2 0.2 0.4 0.2h1.8c-0.9 2.2-2.2 6.1-2.9 9.6-0.2 0-0.4 0-0.6 0-1.1 0-1.8 0.3-1.8 0.3-1.8 0.7-3.1 1.9-3.9 3.6-1.4 3.2-1 8 1.5 14.4 4 10.7 10.5 11.9 11.9 12.1 2.1 2.7 5.2 5.6 7.2 7-0.6 0.7-0.9 1.8-0.8 3.1 0.1 2.2 1.4 4.8 4.6 5.4 0 0 0.1 0 0.1 0 0.4 0 1-0.2 1.4-0.6 0.5 0.3 1 0.5 1.5 0.6 0 0 0 0 0.1 0 0 0 0.1 0 0.1 0 0.3 0 0.8-0.3 1.1-0.7 0.4 0.3 0.9 0.4 1.2 0.4 0.1 0 0.2 0 0.3 0 0.7-0.1 1.6-0.6 1.9-2.3 0.7-0.5 1.6-1.3 2.1-2.2 1.1 0.1 3.7 0.1 5.8 0.1 0.9 0 1.6 0 2.1 0 0.5 0.9 1.4 1.5 2 2 0.4 1.6 1.2 2.1 1.9 2.3 0.1 0 0.2 0 0.3 0 0.3 0 0.7-0.1 1.2-0.4 0.4 0.5 0.8 0.7 1.1 0.7 0 0 0.1 0 0.1 0 0 0 0 0 0.1 0 0.5-0.1 1-0.3 1.5-0.6 0.4 0.4 1 0.6 1.4 0.6 0 0 0.1 0 0.1 0 3.2-0.6 4.5-3.2 4.6-5.4 0.1-1.3-0.2-2.4-0.8-3.1 2.3-1.6 6.1-5.3 7.6-7.5 1.3-0.2 7.7-1.8 11.3-12.6C90.5 54.9 87.8 50.6 84.9 48.9zM72.9 28l-22.5 12L24.2 27l0-5 25.6 13c0.1 0 0.2 0.1 0.2 0.1 0.1 0 0.2 0 0.2-0.1l22.7-11.8L72.9 28zM21.1 19.3L20.8 19l28.7-13 28.7 13L76 20.4l-2.7 1.4c-0.1 0-0.2 0.1-0.2 0.1L50 34 25.3 21.4l24.2-2.5c0.3 0 0.5-0.3 0.5-0.6 0-0.3-0.3-0.5-0.6-0.5l-25.7 2.7c0 0 0 0 0 0L21.1 19.3zM23.6 31.6l3.3 7h-6.6L23.6 31.6zM14.6 67.1c-2.3-6.1-2.8-10.7-1.5-13.6 0.7-1.5 1.8-2.5 3.4-3.1 0 0 0.6-0.2 1.4-0.2 0.3 0 0.6 0 0.9 0.1 0 0 0 0 0 0 0 0 0 0 0 0 2.4 0.4 6 2.6 8.5 11.1 3.2 10.9-0.9 16.2-1.8 17.1C24.4 78.4 18.4 77 14.6 67.1zM36.6 94c-3.3-0.7-3.7-3.5-3.7-4.4-0.1-1.5 0.4-2.5 0.8-2.6 0.3-0.1 0.5-0.1 0.7-0.1 0.5 0 0.9 0.2 1.3 0.4 0 1 0.2 4.1 1.6 6.4C37.1 93.9 36.8 94 36.6 94zM39.5 94c-0.4-0.1-0.9-0.3-1.2-0.7-1.5-2.2-1.6-5.7-1.6-6.3 0.1-0.3 0.3-0.6 0.6-0.8 0.9-0.4 1.6-0.2 2.2 0.3 0.1 0.9 0.4 4.7 0.6 6.7C40 93.8 39.7 93.9 39.5 94zM42.1 93.7c-0.3 0.1-0.7-0.1-1-0.5-0.2-2.1-0.5-6-0.6-6.7 0.1-0.3 0.3-0.6 0.6-0.7 0.2-0.1 0.4-0.1 0.5-0.1 0.5 0 0.9 0.4 1.1 0.7 0.1 0.3 0.9 2.5 0.5 5.6C43 93.5 42.3 93.6 42.1 93.7zM44.4 91c0.1-1.9-0.2-3.4-0.4-4.2 0.8 0.1 1.8 0.5 1.8 1.7C45.9 89.4 45.2 90.3 44.4 91zM46.8 89.2c0.1-0.3 0.1-0.5 0.1-0.8-0.1-1.8-1.8-2.6-3.3-2.7-0.7-1-1.7-1.3-2.7-0.8-0.3 0.1-0.6 0.4-0.9 0.7-0.3-0.2-0.8-0.4-1.3-0.5-1.4-1.8-3.8-5-3.5-10.6 0.5-7.7 7-13.3 15.3-13.3 8.3 0 14.7 5.6 15.3 13.3 0.4 5.2-2 8.2-3.6 10.1L62 84.9c-0.5 0.1-1 0.2-1.3 0.5-0.2-0.4-0.5-0.6-0.9-0.7-1-0.4-2-0.1-2.7 0.8-1.6 0.1-3.2 0.8-3.3 2.7 0 0.4 0 0.7 0.1 1.1C52 89.3 48.4 89.2 46.8 89.2zM55 89.5C55 89.5 55 89.5 55 89.5c-0.2-0.4-0.3-0.8-0.3-1.3 0.1-1.1 1-1.5 1.8-1.7-0.3 0.8-0.5 2.2-0.4 4.2C55.7 90.4 55.3 90 55 89.5zM58.4 93.5c-0.2 0-0.9-0.2-1.2-1.6-0.6-3.7 0.4-5.5 0.5-5.6 0.2-0.4 0.6-0.8 1.1-0.8 0.2 0 0.3 0 0.5 0.1 0.3 0.1 0.5 0.4 0.6 0.7L59.3 93C59 93.4 58.7 93.6 58.4 93.5zM61 93.8c-0.1 0-0.4-0.2-0.6-0.6l0.6-6.7c0.6-0.5 1.4-0.7 2.2-0.3 0.3 0.1 0.5 0.5 0.6 0.7-0.2 2-0.7 5.5-1.5 6.2 0 0 0 0 0 0 0 0 0 0 0 0C61.8 93.5 61.4 93.7 61 93.8zM67.6 89.4c0 0.9-0.5 3.8-3.7 4.4-0.1 0-0.4-0.1-0.6-0.3 1.1-1.5 1.5-5.3 1.5-6.4 0.3-0.2 0.7-0.4 1.3-0.4 0.2 0 0.5 0 0.7 0.1C67.2 86.9 67.7 87.9 67.6 89.4zM66.8 85.8c-0.3-0.1-0.5-0.1-0.8-0.1-0.6 0-1.1 0.2-1.5 0.4-0.2-0.4-0.6-0.7-1-0.9-0.1-0.1-0.3-0.1-0.4-0.1 1.6-2 3.9-5.2 3.6-10.6-0.6-8.3-7.5-14.3-16.3-14.3-8.9 0-15.8 6-16.3 14.3-0.4 5.4 1.8 8.8 3.3 10.7-0.1 0-0.3 0.1-0.4 0.1-0.4 0.2-0.7 0.5-1 0.9-0.4-0.2-0.9-0.4-1.5-0.4-0.3 0-0.5 0-0.8 0.1-1.8-1.1-5-4.1-7.2-6.9 1.2-1.4 5.1-6.9 1.9-18-2.5-8.5-6.1-11-8.8-11.7 0.7-3.7 2.1-7.7 3-9.8h5c0 0 0 0 0 0 0.3 0 0.5-0.2 0.5-0.5 0-0.1 0-0.1 0-0.2 0-0.1 0-0.2 0-0.4l-3.8-8.2c0 0 0 0 0 0l0-2.2 15.6 7.7c-0.2 0-0.4 0-0.6 0-5.8 0-10.5 4.7-10.5 10.5s4.7 10.5 10.5 10.5 10.5-4.7 10.5-10.5c0-2.6-1-5-2.6-6.8l3 1.5c0.1 0 0.1 0.1 0.2 0.1 0.1 0 0.2 0 0.2-0.1l3.1-1.7c-1.7 1.9-2.7 4.3-2.7 7 0 5.8 4.7 10.5 10.5 10.5s10.5-4.7 10.5-10.5-4.7-10.5-10.5-10.5c-0.5 0-1 0-1.5 0.1l12.9-6.8 0 3.2c0 0.1 0.1 0.3 0.2 0.4 0.1 0.1 6 5.9 8.1 15.5-2.7 0.3-7 2.5-9.4 12.3-2.8 11.2 1.4 16.6 2.7 17.9C72.7 80.8 68.8 84.5 66.8 85.8zM48.7 46.3c0 5.2-4.3 9.5-9.5 9.5-5.2 0-9.5-4.3-9.5-9.5 0-5.2 4.3-9.5 9.5-9.5C44.5 36.8 48.7 41.1 48.7 46.3zM61.6 36.8c5.2 0 9.5 4.3 9.5 9.5 0 5.2-4.3 9.5-9.5 9.5-5.2 0-9.5-4.3-9.5-9.5C52.1 41.1 56.3 36.8 61.6 36.8zM85.8 65.9C82.4 76 76.5 77.6 75.3 77.8c-0.9-0.9-5.2-6-2.5-17.1 2.4-9.9 6.7-11.5 9-11.6 0.8 0 1.4 0.2 1.5 0.2 0.4 0.1 0.7 0.3 1.1 0.4C88.1 51.9 88.6 57.5 85.8 65.9z" fill="#f84e45" data-fill-palette-color="accent"></path><path d="M41.5 49.1c1.5 0 2.8-1.3 2.8-2.8 0-1.5-1.3-2.8-2.8-2.8-1.5 0-2.8 1.3-2.8 2.8C38.7 47.9 40 49.1 41.5 49.1zM41.5 44.5c1 0 1.8 0.8 1.8 1.8s-0.8 1.8-1.8 1.8c-1 0-1.8-0.8-1.8-1.8S40.5 44.5 41.5 44.5z" fill="#f84e45" data-fill-palette-color="accent"></path><path d="M58.4 49.1c1.5 0 2.8-1.3 2.8-2.8 0-1.5-1.3-2.8-2.8-2.8-1.5 0-2.8 1.3-2.8 2.8C55.6 47.9 56.8 49.1 58.4 49.1zM58.4 44.5c1 0 1.8 0.8 1.8 1.8s-0.8 1.8-1.8 1.8-1.8-0.8-1.8-1.8S57.4 44.5 58.4 44.5z" fill="#f84e45" data-fill-palette-color="accent"></path><path d="M46.3 69.9c-0.2-0.2-0.5-0.2-0.7 0l-2.5 2.3-2.7-2.3c-0.2-0.2-0.5-0.2-0.7 0-0.2 0.2-0.2 0.5 0 0.7l3 2.6c0.1 0.1 0.2 0.1 0.3 0.1 0.1 0 0.2 0 0.3-0.1l2.9-2.6C46.5 70.4 46.5 70.1 46.3 69.9z" fill="#f84e45" data-fill-palette-color="accent"></path><path d="M50.4 73.2c0.1 0.1 0.2 0.1 0.3 0.1 0.1 0 0.2 0 0.3-0.1l2.9-2.6c0.2-0.2 0.2-0.5 0-0.7-0.2-0.2-0.5-0.2-0.7 0l-2.5 2.3L48 69.9c-0.2-0.2-0.5-0.2-0.7 0-0.2 0.2-0.2 0.5 0 0.7L50.4 73.2z" fill="#f84e45" data-fill-palette-color="accent"></path><path d="M54.1 79.1c-0.2-0.2-0.5-0.2-0.7 0l-2.5 2.3-2.7-2.3c-0.2-0.2-0.5-0.2-0.7 0-0.2 0.2-0.2 0.5 0 0.7l3 2.6c0.1 0.1 0.2 0.1 0.3 0.1 0.1 0 0.2 0 0.3-0.1l2.9-2.6C54.2 79.6 54.2 79.3 54.1 79.1z" fill="#f84e45" data-fill-palette-color="accent"></path><path d="M50.2 75.3c0.2-0.2 0.2-0.5 0-0.7-0.2-0.2-0.5-0.2-0.7 0L47 76.9l-2.7-2.3c-0.2-0.2-0.5-0.2-0.7 0-0.2 0.2-0.2 0.5 0 0.7l3 2.6c0.1 0.1 0.2 0.1 0.3 0.1 0.1 0 0.2 0 0.3-0.1L50.2 75.3z" fill="#f84e45" data-fill-palette-color="accent"></path><path d="M51.1 74.6c-0.2 0.2-0.2 0.5 0 0.7l3 2.6c0.1 0.1 0.2 0.1 0.3 0.1 0.1 0 0.2 0 0.3-0.1l2.9-2.6c0.2-0.2 0.2-0.5 0-0.7-0.2-0.2-0.5-0.2-0.7 0l-2.5 2.3-2.7-2.3C51.6 74.4 51.3 74.4 51.1 74.6z" fill="#f84e45" data-fill-palette-color="accent"></path><path d="M58 73.2c0.1 0.1 0.2 0.1 0.3 0.1 0.1 0 0.2 0 0.3-0.1l2.9-2.6c0.2-0.2 0.2-0.5 0-0.7-0.2-0.2-0.5-0.2-0.7 0l-2.5 2.3-2.7-2.3c-0.2-0.2-0.5-0.2-0.7 0-0.2 0.2-0.2 0.5 0 0.7L58 73.2z" fill="#f84e45" data-fill-palette-color="accent"></path><path d="M50.1 53.1c-2.1 0-3.2 2.3-3.3 2.4-0.1 0.2-0.1 0.4 0.1 0.5l3.1 3.8c0.1 0.1 0.2 0.2 0.4 0.2 0 0 0 0 0 0 0.2 0 0.3-0.1 0.4-0.2l2.8-4c0.1-0.2 0.1-0.4 0-0.6C53.5 55 52.1 53.1 50.1 53.1zM50.3 58.6l-2.4-3c0.3-0.5 1.1-1.5 2.2-1.5 1.1 0 2 0.9 2.5 1.3L50.3 58.6z" fill="#f84e45" data-fill-palette-color="accent"></path><path d="M14.6 55.4c0-0.3-0.3-0.5-0.6-0.4-0.3 0-0.5 0.3-0.4 0.6 0 0.1 1.3 10.8 7.2 18.6 0.1 0.1 0.3 0.2 0.4 0.2 0.1 0 0.2 0 0.3-0.1 0.2-0.2 0.3-0.5 0.1-0.7C15.9 66 14.6 55.5 14.6 55.4z" fill="#f84e45" data-fill-palette-color="accent"></path><path d="M84.7 52.1c-0.3 0-0.5 0.3-0.4 0.6 0 0.1 1.5 12-7 20.9-0.2 0.2-0.2 0.5 0 0.7 0.1 0.1 0.2 0.1 0.3 0.1 0.1 0 0.3-0.1 0.4-0.2 8.8-9.3 7.2-21.6 7.2-21.7C85.2 52.2 85 52 84.7 52.1z" fill="#f84e45" data-fill-palette-color="accent"></path></g></svg></g></svg></g><g id="text-0"><path d="M27.092 101.847v0l-0.028 0.086c0.261 2.131 0.108 4.067-0.46 5.808v0c-0.891 2.733-2.442 3.831-4.653 3.294v0c-0.147-0.027-0.285-0.061-0.412-0.103v0c-1.574-0.513-2.292-1.894-2.154-4.143v0c0.134-1.323 0.54-3.643 1.219-6.962v0l-2.707-0.883c-0.864-0.282-1.636-0.42-2.318-0.416-0.688 0.002-1.219 0.08-1.595 0.234-0.38 0.145-0.714 0.387-1.001 0.725v0c-0.365 0.426-0.647 0.943-0.846 1.551-0.196 0.602-0.268 1.343-0.215 2.224v0c0.104 1.287 0.372 2.486 0.803 3.596v0l2.359 0.908-0.037 0.635-3.725-1.214-0.024-0.348c-0.176-1.827-0.198-3.183-0.066-4.067 0.128-0.893 0.253-1.535 0.374-1.928 0.114-0.395 0.24-0.768 0.376-1.12 0.136-0.352 0.381-0.789 0.735-1.311 0.354-0.522 0.746-0.943 1.177-1.262 0.438-0.324 1.005-0.543 1.7-0.657 0.695-0.113 1.453-0.036 2.272 0.231v0l9.417 3.071c0.64 0.209 1.014 0.147 1.123-0.186v0l0.696-1.844 0.452 0.179c-0.209 1.206-0.461 2.26-0.755 3.163v0c-0.098 0.237-0.31 0.451-0.635 0.642-0.324 0.192-0.682 0.224-1.072 0.097zM26.293 107.034v0c0.497-1.523 0.488-3.31-0.026-5.361v0l-5.078-1.655c-0.901 3.112-1.353 5.106-1.356 5.983-0.001 0.871 0.222 1.545 0.668 2.023 0.448 0.472 0.938 0.794 1.469 0.967v0c0.102 0.033 0.205 0.067 0.307 0.1v0c1.088 0.291 1.962 0.226 2.623-0.196 0.661-0.422 1.126-1.042 1.393-1.861z" fill="#d7dbde" data-fill-palette-color="primary"></path><path d="M42.362 90.848l-3.035 6.125-0.433-0.15 1-2.865c0.048-0.141-0.043-0.297-0.275-0.466v0l-5.589-4.009-0.481 0.956-15.881-1.929-0.041 0.014c-0.283-0.022-0.495 0.064-0.637 0.256v0l-0.775 1.249c-0.123-0.039-0.272-0.103-0.446-0.191v0l3.03-6.093c0.018 0.009 0.167 0.073 0.447 0.19v0l-0.963 2.342 15.257 2.315-10.02-11.786c-0.093-0.115-0.206-0.13-0.338-0.046-0.142 0.087-0.256 0.195-0.344 0.325v0l-0.73 1.226c-0.123-0.039-0.272-0.103-0.447-0.19v0l2.636-5.309c0.018 0.009 0.167 0.073 0.447 0.191v0l-1.032 2.702 10.708 13.002 6.067 4.431 1.41-2.445c0.292 0.094 0.447 0.146 0.465 0.155z" fill="#d7dbde" data-fill-palette-color="primary"></path><path d="M23.629 61.957v0l6.565 4.689c-0.109-1.666 0.3-3.148 1.227-4.446v0c0.853-1.194 2.024-2.058 3.513-2.591v0c0.804-0.269 1.76-0.269 2.866 0 1.103 0.275 2.27 0.852 3.503 1.733v0c2.333 1.667 3.676 3.498 4.028 5.495v0c0.394 2.275-0.129 4.42-1.569 6.435v0c-0.54 0.756-1.138 1.466-1.794 2.131-0.658 0.655-1.155 1.049-1.49 1.182v0l-18.281-13.057c-0.166-0.069-0.274-0.068-0.325 0.003v0l-1.2 1.576-0.346-0.297c0.631-1.22 1.094-2.035 1.387-2.446 0.293-0.411 0.622-0.627 0.985-0.649 0.358-0.026 0.668 0.055 0.931 0.242zM30.695 67.004v0l11.141 7.957c0.495-0.358 0.97-0.854 1.424-1.489v0c1.228-1.72 1.572-3.481 1.03-5.282-0.538-1.807-1.897-3.489-4.077-5.046v0c-2.388-1.706-4.334-2.38-5.838-2.023v0c-1.174 0.278-2.106 0.899-2.794 1.863-0.692 0.97-0.988 2.31-0.886 4.02z" fill="#d7dbde" data-fill-palette-color="primary"></path><path d="M40.963 52.194l-1.292 1.079-0.374-0.312 3.05-3.132 8.019 7.916c0.599 0.591 1.201 1.016 1.807 1.274 0.601 0.263 1.104 0.39 1.509 0.383 0.405-0.007 0.797-0.098 1.176-0.272v0c0.579-0.28 0.998-0.58 1.258-0.9v0c0.908-0.948 1.479-2.494 1.713-4.638v0l-8.917-8.803c-0.248-0.122-0.486-0.097-0.713 0.076v0l-1.3 1.086c-0.105-0.075-0.227-0.182-0.366-0.319v0l3.05-3.132 10.454 10.321c0.416 0.354 0.731 0.424 0.944 0.208v0l1.434-1.322 0.323 0.362c-0.604 0.861-1.301 1.691-2.09 2.49v0c-0.199 0.173-0.498 0.27-0.898 0.292-0.404 0.026-0.753-0.105-1.045-0.393v0l-0.416-0.412c-0.442 2.326-1.278 4.111-2.508 5.357v0c-0.515 0.522-1.253 1.005-2.211 1.449v0c-0.626 0.299-1.309 0.353-2.048 0.163-0.744-0.186-1.468-0.626-2.172-1.321v0l-7.652-7.555c-0.077-0.076-0.191-0.103-0.343-0.084-0.152 0.01-0.283 0.057-0.392 0.138z" fill="#d7dbde" data-fill-palette-color="primary"></path><path d="M83.668 36.903v0l-0.079 0.045c-1.232 1.759-2.64 3.095-4.226 4.01v0c-2.49 1.435-4.377 1.214-5.662-0.664v0c-0.091-0.118-0.171-0.236-0.238-0.352v0c-0.827-1.435-0.437-2.941 1.17-4.521v0c0.984-0.894 2.839-2.347 5.563-4.36v0l-1.422-2.467c-0.454-0.787-0.935-1.407-1.445-1.859-0.513-0.458-0.96-0.756-1.342-0.893-0.38-0.146-0.789-0.19-1.229-0.131v0c-0.557 0.072-1.112 0.268-1.666 0.588-0.548 0.316-1.097 0.819-1.647 1.509v0c-0.783 1.027-1.386 2.097-1.809 3.21v0l1.147 2.253-0.453 0.447-1.957-3.394 0.215-0.275c1.092-1.476 1.982-2.498 2.672-3.067 0.692-0.578 1.215-0.972 1.567-1.183 0.349-0.217 0.692-0.41 1.029-0.581 0.337-0.171 0.811-0.332 1.423-0.483 0.612-0.151 1.185-0.201 1.719-0.152 0.543 0.052 1.111 0.269 1.703 0.65 0.593 0.381 1.104 0.945 1.534 1.691v0l4.947 8.582c0.336 0.583 0.656 0.787 0.959 0.612v0l1.751-0.904 0.216 0.435c-0.962 0.757-1.855 1.372-2.677 1.846v0c-0.232 0.11-0.532 0.128-0.901 0.053-0.369-0.075-0.656-0.29-0.862-0.645zM79.604 40.224v0c1.388-0.8 2.577-2.134 3.567-4.002v0l-2.668-4.627c-2.751 1.71-4.421 2.89-5.01 3.54-0.583 0.647-0.868 1.297-0.856 1.951 0.017 0.65 0.166 1.218 0.444 1.701v0c0.054 0.093 0.108 0.187 0.162 0.28v0c0.614 0.944 1.308 1.48 2.081 1.609 0.774 0.129 1.534-0.022 2.28-0.452z" fill="#d7dbde" data-fill-palette-color="primary"></path><path d="M91.756 17.3v0c-1.699 0.7-2.799 1.928-3.298 3.684-0.5 1.756-0.249 3.851 0.753 6.285v0c1.784 4.332 4.322 5.82 7.615 4.465v0c1.295-0.533 2.351-1.114 3.17-1.742 0.812-0.626 1.246-0.986 1.301-1.082v0l0.354 0.247c-0.338 0.488-0.994 1.05-1.971 1.685-0.976 0.635-1.894 1.129-2.752 1.483-0.859 0.354-1.674 0.584-2.446 0.691-0.771 0.107-1.607 0.076-2.506-0.093-0.897-0.162-1.757-0.652-2.582-1.47-0.831-0.815-1.538-1.933-2.122-3.352v0c-1.076-2.614-1.22-4.863-0.43-6.746v0c0.867-2.155 2.436-3.7 4.708-4.636v0c0.722-0.297 1.526-0.519 2.412-0.665 0.882-0.138 1.627-0.098 2.232 0.118v0l1.615 3.921-0.485 0.44-1.445-3.085c-0.629-0.272-1.319-0.429-2.071-0.468-0.752-0.04-1.436 0.067-2.052 0.32z" fill="#d7dbde" data-fill-palette-color="primary"></path><path d="M116.051 25.295v0l-0.089 0.021c-1.679 1.338-3.409 2.22-5.189 2.648v0c-2.795 0.671-4.542-0.076-5.242-2.241v0c-0.054-0.139-0.097-0.274-0.129-0.405v0c-0.387-1.61 0.414-2.945 2.404-4.004v0c1.197-0.578 3.387-1.447 6.57-2.605v0l-0.665-2.769c-0.212-0.884-0.498-1.614-0.858-2.192-0.362-0.585-0.707-0.997-1.035-1.237-0.323-0.248-0.703-0.406-1.141-0.473v0c-0.554-0.088-1.142-0.058-1.764 0.091-0.615 0.148-1.284 0.475-2.008 0.98v0c-1.042 0.762-1.924 1.618-2.644 2.567v0l0.461 2.485-0.561 0.301-0.914-3.81 0.283-0.203c1.465-1.106 2.609-1.834 3.432-2.184 0.828-0.358 1.441-0.588 1.838-0.691 0.396-0.109 0.78-0.198 1.151-0.265 0.371-0.068 0.872-0.088 1.502-0.06 0.63 0.029 1.194 0.143 1.692 0.342 0.506 0.204 0.989 0.573 1.449 1.105 0.46 0.533 0.791 1.219 0.992 2.057v0l2.312 9.631c0.157 0.655 0.406 0.941 0.747 0.859v0l1.935-0.371 0.084 0.478c-1.137 0.453-2.167 0.79-3.09 1.012v0c-0.253 0.04-0.547-0.028-0.88-0.204-0.333-0.176-0.547-0.464-0.643-0.863zM111.212 27.329v0c1.558-0.374 3.076-1.317 4.555-2.828v0l-1.247-5.193c-3.123 0.861-5.059 1.519-5.808 1.976-0.742 0.455-1.2 0.998-1.374 1.628-0.168 0.629-0.186 1.215-0.056 1.757v0c0.025 0.105 0.05 0.209 0.075 0.315v0c0.321 1.079 0.835 1.79 1.54 2.132 0.705 0.343 1.477 0.414 2.315 0.213z" fill="#d7dbde" data-fill-palette-color="primary"></path><path d="M134.448 1.201v0l1.853 21.193c0.059 0.671 0.259 0.991 0.601 0.961v0l1.939-0.078 0.012 0.486c-1.017 0.265-2.086 0.446-3.206 0.543v0c-0.236 0-0.498-0.095-0.785-0.286-0.287-0.191-0.466-0.459-0.537-0.804v0c-1.159 0.885-2.547 1.398-4.162 1.539v0c-1.569 0.137-3.06-0.178-4.472-0.947v0c-0.794-0.424-1.469-1.149-2.024-2.174-0.556-1.026-0.901-2.303-1.035-3.832v0c-0.246-2.816 0.287-5.029 1.599-6.636v0c1.39-1.723 3.064-2.67 5.022-2.841v0c1.2-0.105 2.451 0.1 3.753 0.614v0l-0.674-7.715c-0.021-0.235-0.094-0.346-0.222-0.335v0l-1.977 0.112 0.001-0.456c1.338-0.313 2.258-0.491 2.761-0.536 0.503-0.044 0.881 0.065 1.133 0.327 0.252 0.255 0.392 0.543 0.42 0.865zM130.534 24.135v0c1.314-0.115 2.546-0.513 3.696-1.195v0l-1.179-13.488c-0.996-0.494-1.957-0.701-2.882-0.62v0c-1.851 0.162-3.278 0.999-4.28 2.513-1.002 1.52-1.388 3.601-1.157 6.243v0c0.408 4.667 2.342 6.849 5.802 6.547z" fill="#d7dbde" data-fill-palette-color="primary"></path><path d="M145.634 16.794v0c-0.33 4.653 1.311 7.108 4.923 7.364v0c0.953 0.068 1.974 0.039 3.063-0.087 1.089-0.132 1.791-0.271 2.105-0.417v0l0.208 0.339c-0.52 0.287-1.355 0.498-2.504 0.632-1.143 0.135-2.182 0.169-3.115 0.103-0.94-0.067-1.772-0.224-2.497-0.471-0.731-0.248-1.469-0.647-2.213-1.2-0.737-0.545-1.293-1.364-1.668-2.456-0.382-1.087-0.519-2.392-0.41-3.916v0c0.202-2.847 1.088-4.97 2.659-6.371v0c1.642-1.462 3.474-2.122 5.495-1.978 2.028 0.144 3.536 0.814 4.523 2.011 0.982 1.19 1.401 2.799 1.257 4.826v0c-0.03 0.43-0.094 0.891-0.189 1.384v0l-11.532-0.819c-0.037 0.234-0.072 0.585-0.105 1.056zM155.573 14.807v0c0.114-1.611-0.148-2.956-0.787-4.034-0.633-1.071-1.563-1.65-2.792-1.737v0c-1.598-0.113-2.994 0.493-4.188 1.818v0c-0.964 1.032-1.618 2.456-1.963 4.274v0l9.628 0.684c0.037-0.24 0.071-0.575 0.102-1.005z" fill="#d7dbde" data-fill-palette-color="primary"></path><path d="M171.745 12.846v0c-1.254-0.313-2.732-0.216-4.434 0.292v0l-3.475 13.045 2.31 0.782c-0.005 0.02-0.057 0.173-0.154 0.461v0l-6.272-1.64c0.05-0.189 0.102-0.332 0.156-0.428v0l1.677 0.217c0.13 0.035 0.24-0.037 0.329-0.216v0l3.659-13.737c-0.001-0.153-0.044-0.241-0.128-0.264v0l-1.865-0.57 0.153-0.419c1.175 0.111 2.053 0.244 2.632 0.398 0.585 0.156 0.947 0.395 1.084 0.717 0.135 0.329 0.161 0.649 0.078 0.961v0l-0.101 0.381c2.026-0.624 3.769-0.786 5.229-0.488v0c1.977 0.527 3.174 1.448 3.589 2.764v0c2.085-0.559 3.943-0.667 5.572-0.324v0c1.463 0.39 2.489 0.987 3.076 1.791v0c0.285 0.368 0.481 0.874 0.589 1.515 0.108 0.642 0.056 1.359-0.156 2.153v0l-2.9 10.888 2.31 0.783c-0.005 0.02-0.06 0.172-0.164 0.458v0l-6.262-1.637c0.05-0.189 0.099-0.332 0.147-0.431v0l1.686 0.219c0.124 0.033 0.233-0.039 0.329-0.215v0l2.617-9.825c0.222-0.833 0.305-1.577 0.25-2.232-0.05-0.647-0.163-1.141-0.338-1.48-0.183-0.334-0.439-0.626-0.77-0.874v0c-0.373-0.273-0.8-0.474-1.281-0.602v0c-1.3-0.325-2.838-0.212-4.615 0.338v0c0.117 0.658 0.07 1.384-0.141 2.178v0l-2.9 10.888 2.3 0.78c-0.005 0.02-0.057 0.173-0.154 0.46v0l-6.301-1.647 0.156-0.428 1.677 0.216c0.155 0.02 0.277-0.059 0.366-0.236v0l2.617-9.825c0.272-1.021 0.362-1.896 0.27-2.624-0.098-0.73-0.35-1.26-0.757-1.591v0c-0.541-0.479-1.105-0.796-1.69-0.952z" fill="#d7dbde" data-fill-palette-color="primary"></path><path d="M197.11 21.911v0l-5.789 12.984 2.157 1.139c-0.008 0.018-0.083 0.162-0.225 0.43v0l-5.933-2.612c0.079-0.178 0.153-0.311 0.222-0.398v0l1.621 0.479c0.123 0.055 0.243 0.001 0.359-0.16v0l5.789-12.984c0.023-0.152-0.005-0.245-0.085-0.281v0l-1.751-0.858 0.218-0.39c1.143 0.296 1.991 0.567 2.544 0.814 0.547 0.244 0.863 0.536 0.948 0.876 0.082 0.346 0.057 0.666-0.075 0.961zM198.411 16.29c-0.393-0.175-0.643-0.434-0.749-0.776-0.106-0.342-0.068-0.716 0.113-1.122 0.181-0.406 0.44-0.681 0.777-0.825 0.337-0.144 0.702-0.129 1.096 0.046 0.393 0.175 0.658 0.441 0.795 0.797 0.136 0.356 0.11 0.745-0.079 1.169-0.189 0.424-0.463 0.692-0.823 0.805-0.353 0.115-0.73 0.084-1.13-0.094z" fill="#d7dbde" data-fill-palette-color="primary"></path><path d="M212.309 29.42v0c-1.574-0.948-3.215-1.1-4.924-0.456-1.709 0.644-3.242 2.094-4.6 4.349v0c-2.418 4.013-2.102 6.938 0.948 8.775v0c1.199 0.723 2.295 1.226 3.287 1.509 0.986 0.28 1.535 0.414 1.645 0.402v0l0.011 0.431c-0.593 0.02-1.436-0.173-2.527-0.58-1.091-0.406-2.035-0.849-2.83-1.328-0.796-0.479-1.466-0.997-2.011-1.553-0.545-0.556-1.018-1.246-1.418-2.069-0.404-0.817-0.523-1.8-0.357-2.949 0.16-1.153 0.636-2.387 1.429-3.701v0c1.459-2.422 3.18-3.876 5.163-4.363v0c2.248-0.587 4.423-0.246 6.528 1.021v0c0.669 0.403 1.326 0.917 1.971 1.542 0.636 0.627 1.048 1.248 1.234 1.863v0l-2.188 3.633-0.642-0.128 1.617-2.998c-0.156-0.668-0.441-1.315-0.857-1.943-0.416-0.628-0.909-1.113-1.479-1.457z" fill="#d7dbde" data-fill-palette-color="primary"></path><path d="M239.367 41.921v0l-6.253 6.156c3.37 0.659 5.593 2.059 6.672 4.2v0c0.258 0.473 0.416 0.95 0.474 1.431 0.058 0.472-0.022 1.009-0.241 1.612-0.219 0.612-0.621 1.207-1.206 1.783v0l-8.029 7.905 1.592 1.847c-0.014 0.014-0.139 0.118-0.374 0.312v0l-4.562-4.591c0.139-0.137 0.254-0.236 0.345-0.297v0l1.341 1.045c0.09 0.091 0.221 0.085 0.393-0.018v0l7.223-7.112c0.6-0.59 1.037-1.182 1.314-1.775 0.281-0.598 0.413-1.101 0.397-1.51-0.011-0.414-0.105-0.817-0.283-1.209v0c-0.243-0.554-0.53-0.97-0.862-1.249v0c-1.011-0.969-2.503-1.669-4.474-2.098v0l-9.368 9.223 1.592 1.847c-0.014 0.014-0.137 0.12-0.366 0.319v0l-4.57-4.598c0.139-0.137 0.256-0.234 0.352-0.29v0l1.335 1.038c0.137 0.111 0.306 0.067 0.508-0.131v0l15.691-15.45c0.168-0.165 0.207-0.293 0.118-0.385v0l-1.324-1.431 0.352-0.29c0.956 0.693 1.647 1.255 2.071 1.687 0.42 0.427 0.605 0.816 0.555 1.168-0.046 0.347-0.183 0.634-0.413 0.861z" fill="#d7dbde" data-fill-palette-color="primary"></path><path d="M246.907 61.603l-0.835-1.462 0.373-0.313 2.546 3.554-9.206 6.498c-0.687 0.485-1.211 1.003-1.572 1.555-0.365 0.546-0.579 1.018-0.643 1.418-0.064 0.4-0.044 0.801 0.06 1.206v0c0.173 0.619 0.395 1.085 0.665 1.396v0c0.773 1.061 2.194 1.895 4.263 2.503v0l10.237-7.226c0.164-0.223 0.181-0.461 0.051-0.715v0l-0.841-1.471c0.093-0.09 0.219-0.192 0.379-0.304v0l2.546 3.554-12.002 8.472c-0.422 0.347-0.546 0.645-0.372 0.892v0l1.05 1.645-0.413 0.254c-0.741-0.746-1.435-1.578-2.084-2.496v0c-0.135-0.226-0.178-0.538-0.129-0.935 0.045-0.403 0.236-0.722 0.572-0.959v0l0.478-0.338c-2.211-0.845-3.822-1.982-4.831-3.412v0c-0.423-0.599-0.769-1.41-1.037-2.432v0c-0.184-0.669-0.117-1.351 0.201-2.045 0.314-0.699 0.875-1.334 1.683-1.905v0l8.785-6.201c0.088-0.062 0.136-0.17 0.143-0.323 0.017-0.152-0.006-0.288-0.067-0.41z" fill="#d7dbde" data-fill-palette-color="primary"></path><path d="M267.036 79.962v0l-7.264 3.507c1.514 0.704 2.617 1.775 3.31 3.212v0c0.638 1.321 0.833 2.763 0.586 4.325v0c-0.15 0.835-0.609 1.673-1.376 2.514-0.77 0.835-1.837 1.582-3.201 2.241v0c-2.582 1.247-4.834 1.545-6.755 0.895v0c-2.184-0.747-3.815-2.236-4.892-4.466v0c-0.404-0.837-0.74-1.702-1.007-2.597-0.259-0.892-0.366-1.516-0.322-1.874v0l20.231-9.767c0.14-0.112 0.191-0.208 0.153-0.287v0l-0.805-1.809 0.426-0.161c0.767 1.14 1.26 1.937 1.48 2.392 0.219 0.455 0.252 0.846 0.096 1.175-0.149 0.326-0.369 0.559-0.66 0.7zM259.217 83.737v0l-12.33 5.952c0.076 0.606 0.284 1.261 0.623 1.964v0c0.919 1.903 2.298 3.05 4.139 3.44 1.843 0.396 3.971 0.011 6.383-1.153v0c2.643-1.276 4.169-2.659 4.578-4.15v0c0.32-1.164 0.223-2.279-0.292-3.346-0.518-1.073-1.552-1.975-3.101-2.707z" fill="#d7dbde" data-fill-palette-color="primary"></path><path d="M14.012 190.164v0l-0.028-0.087c-1.467-1.568-2.484-3.222-3.052-4.962v0c-0.891-2.733-0.285-4.534 1.818-5.404v0c0.135-0.065 0.266-0.119 0.393-0.16v0c1.574-0.513 2.968 0.179 4.182 2.077v0c0.671 1.147 1.711 3.262 3.12 6.343v0l2.707-0.883c0.864-0.282 1.57-0.625 2.117-1.03 0.554-0.407 0.937-0.784 1.15-1.129 0.221-0.341 0.349-0.733 0.382-1.176v0c0.044-0.56-0.033-1.143-0.232-1.751-0.196-0.602-0.575-1.243-1.136-1.923v0c-0.843-0.978-1.766-1.789-2.769-2.432v0l-2.44 0.657-0.345-0.535 3.725-1.214 0.225 0.266c1.219 1.372 2.036 2.455 2.45 3.247 0.423 0.797 0.701 1.389 0.834 1.778 0.14 0.386 0.259 0.762 0.357 1.126 0.098 0.365 0.157 0.862 0.178 1.493 0.021 0.63-0.047 1.201-0.206 1.713-0.163 0.52-0.492 1.031-0.987 1.532-0.495 0.501-1.152 0.885-1.971 1.153v0l-9.417 3.07c-0.64 0.209-0.906 0.479-0.797 0.812v0l0.524 1.9-0.47 0.122c-0.542-1.098-0.96-2.098-1.255-3v0c-0.06-0.249-0.016-0.547 0.134-0.893 0.149-0.346 0.419-0.583 0.809-0.71zM11.6 185.502v0c0.497 1.523 1.557 2.962 3.181 4.316v0l5.078-1.656c-1.106-3.045-1.916-4.922-2.431-5.632-0.513-0.704-1.09-1.117-1.732-1.241-0.64-0.117-1.226-0.089-1.757 0.084v0c-0.102 0.033-0.205 0.067-0.307 0.1v0c-1.05 0.406-1.718 0.974-2.004 1.705-0.286 0.73-0.295 1.505-0.028 2.324z" fill="#d7dbde" data-fill-palette-color="primary"></path><path d="M13.474 211.426l-3.107-6.088 0.378-0.259 1.704 2.511c0.085 0.123 0.264 0.142 0.538 0.058v0l6.551-2.097-0.481-0.956 11.018-11.599 0.013-0.04c0.186-0.214 0.244-0.436 0.175-0.665v0l-0.541-1.367c0.105-0.075 0.245-0.157 0.42-0.244v0l3.084 6.066c-0.018 0.009-0.158 0.091-0.419 0.244v0l-1.306-2.168-10.956 10.867 15.436-1.016c0.147-0.006 0.227-0.088 0.239-0.245 0.015-0.166-0.004-0.322-0.055-0.469v0l-0.55-1.317c0.105-0.075 0.245-0.157 0.42-0.245v0l2.689 5.281c-0.018 0.009-0.158 0.091-0.419 0.245v0l-1.554-2.439-16.823 0.843-7.174 2.229 1.121 2.589c-0.249 0.178-0.383 0.272-0.401 0.281z" fill="#d7dbde" data-fill-palette-color="primary"></path><path d="M47.797 208.528v0l-6.565 4.688c1.611 0.437 2.88 1.305 3.807 2.604v0c0.853 1.194 1.29 2.582 1.311 4.163v0c-0.006 0.848-0.316 1.752-0.93 2.711-0.617 0.954-1.542 1.871-2.775 2.751v0c-2.333 1.667-4.502 2.343-6.504 2.028v0c-2.279-0.366-4.139-1.556-5.579-3.572v0c-0.54-0.756-1.018-1.552-1.433-2.388-0.406-0.835-0.618-1.432-0.635-1.793v0l18.282-13.056c0.119-0.135 0.153-0.237 0.102-0.309v0l-1.101-1.646 0.393-0.231c0.949 0.993 1.57 1.695 1.864 2.106 0.293 0.411 0.392 0.791 0.294 1.142-0.092 0.347-0.269 0.614-0.531 0.801zM40.73 213.574v0l-11.141 7.958c0.178 0.585 0.493 1.194 0.947 1.829v0c1.228 1.72 2.782 2.616 4.662 2.688 1.883 0.078 3.915-0.662 6.095-2.219v0c2.388-1.706 3.657-3.328 3.808-4.866v0c0.118-1.201-0.167-2.284-0.855-3.248-0.692-0.97-1.864-1.684-3.516-2.142z" fill="#d7dbde" data-fill-palette-color="primary"></path><path d="M51.492 225.157l-1.062-1.306 0.316-0.369 3.093 3.089-8.018 7.917c-0.599 0.591-1.031 1.188-1.297 1.791-0.27 0.598-0.404 1.099-0.402 1.504 0.002 0.405 0.088 0.798 0.257 1.18v0c0.272 0.582 0.567 1.006 0.884 1.269v0c0.937 0.92 2.475 1.51 4.615 1.771v0l8.917-8.803c0.125-0.247 0.103-0.485-0.067-0.714v0l-1.07-1.314c0.077-0.104 0.185-0.225 0.324-0.362v0l3.093 3.09-10.454 10.321c-0.36 0.412-0.433 0.725-0.221 0.941v0l1.305 1.451-0.366 0.319c-0.853-0.615-1.674-1.322-2.464-2.122v0c-0.17-0.201-0.263-0.501-0.28-0.901-0.021-0.405 0.114-0.751 0.407-1.04v0l0.416-0.412c-2.32-0.472-4.094-1.33-5.324-2.575v0c-0.515-0.522-0.989-1.265-1.421-2.23v0c-0.291-0.63-0.337-1.313-0.136-2.05 0.195-0.741 0.645-1.46 1.348-2.154v0l7.652-7.555c0.077-0.076 0.106-0.19 0.088-0.342-0.009-0.152-0.053-0.284-0.133-0.394z" fill="#d7dbde" data-fill-palette-color="primary"></path><path d="M76.798 262.762v0l-0.079-0.045c-2.139-0.184-4.002-0.733-5.588-1.648v0c-2.49-1.435-3.245-3.179-2.264-5.232v0c0.056-0.138 0.118-0.266 0.186-0.383v0c0.827-1.435 2.326-1.852 4.498-1.253v0c1.267 0.404 3.454 1.28 6.561 2.629v0l1.422-2.467c0.454-0.787 0.749-1.515 0.885-2.182 0.139-0.673 0.173-1.21 0.1-1.609-0.064-0.402-0.231-0.778-0.503-1.129v0c-0.341-0.445-0.789-0.828-1.343-1.147-0.548-0.316-1.259-0.539-2.132-0.669v0c-1.281-0.163-2.509-0.149-3.684 0.043v0l-1.375 2.122-0.614-0.168 1.957-3.394 0.345 0.048c1.824 0.205 3.155 0.463 3.993 0.775 0.847 0.31 1.45 0.564 1.81 0.763 0.362 0.193 0.702 0.393 1.018 0.599 0.316 0.206 0.693 0.536 1.131 0.99 0.437 0.454 0.768 0.925 0.993 1.411 0.227 0.496 0.324 1.096 0.291 1.8-0.033 0.704-0.264 1.429-0.694 2.175v0l-4.947 8.581c-0.336 0.583-0.353 0.962-0.049 1.137v0l1.66 1.062-0.268 0.405c-1.137-0.453-2.117-0.917-2.939-1.391v0c-0.212-0.145-0.378-0.396-0.498-0.754-0.121-0.357-0.078-0.713 0.127-1.069zM71.886 260.91v0c1.388 0.8 3.138 1.16 5.251 1.081v0l2.668-4.628c-2.859-1.524-4.717-2.377-5.575-2.56-0.852-0.18-1.558-0.101-2.117 0.236-0.554 0.341-0.97 0.754-1.25 1.238v0c-0.054 0.093-0.108 0.187-0.161 0.279v0c-0.509 1.004-0.625 1.873-0.349 2.608 0.276 0.734 0.787 1.316 1.534 1.746z" fill="#d7dbde" data-fill-palette-color="primary"></path><path d="M97.559 256.353v0c-1.699-0.7-3.345-0.602-4.936 0.293-1.592 0.895-2.888 2.56-3.89 4.994v0c-1.784 4.332-1.029 7.176 2.263 8.531v0c1.295 0.533 2.454 0.865 3.477 0.995 1.017 0.128 1.579 0.177 1.686 0.149v0l0.077 0.424c-0.584 0.109-1.445 0.045-2.586-0.191-1.14-0.237-2.14-0.532-2.999-0.885-0.859-0.354-1.6-0.764-2.222-1.232-0.623-0.468-1.194-1.078-1.714-1.83-0.522-0.747-0.788-1.7-0.798-2.862-0.016-1.164 0.269-2.455 0.853-3.875v0c1.076-2.614 2.558-4.312 4.444-5.092v0c2.133-0.92 4.336-0.912 6.608 0.023v0c0.722 0.297 1.449 0.706 2.181 1.226 0.723 0.524 1.224 1.076 1.502 1.656v0l-1.615 3.921-0.654-0.029 1.147-3.208c-0.255-0.636-0.635-1.233-1.141-1.791-0.506-0.558-1.067-0.963-1.683-1.217z" fill="#d7dbde" data-fill-palette-color="primary"></path><path d="M112.839 275.828v0l-0.088-0.021c-2.104 0.429-4.046 0.43-5.826 0.003v0c-2.795-0.671-4.012-2.13-3.654-4.376v0c0.015-0.149 0.038-0.289 0.07-0.42v0c0.387-1.61 1.706-2.436 3.959-2.476v0c1.329 0.028 3.675 0.249 7.037 0.662v0l0.665-2.769c0.212-0.884 0.289-1.665 0.23-2.343-0.057-0.685-0.177-1.209-0.36-1.572-0.175-0.367-0.442-0.681-0.802-0.94v0c-0.454-0.33-0.991-0.57-1.614-0.719-0.615-0.148-1.36-0.16-2.233-0.038v0c-1.275 0.206-2.449 0.568-3.522 1.086v0l-0.716 2.424-0.637 0.013 0.914-3.809 0.345-0.053c1.808-0.321 3.157-0.45 4.05-0.388 0.9 0.057 1.551 0.13 1.951 0.22 0.402 0.083 0.785 0.178 1.146 0.285 0.362 0.108 0.817 0.317 1.365 0.629 0.548 0.312 0.999 0.669 1.352 1.072 0.358 0.411 0.621 0.959 0.79 1.643 0.168 0.684 0.151 1.445-0.05 2.283v0l-2.312 9.632c-0.157 0.655-0.066 1.023 0.274 1.104v0l1.894 0.548-0.143 0.464c-1.219-0.113-2.29-0.28-3.213-0.501v0c-0.244-0.079-0.474-0.273-0.691-0.582-0.217-0.308-0.277-0.662-0.181-1.061zM107.604 275.444v0c1.558 0.374 3.338 0.223 5.342-0.452v0l1.247-5.193c-3.173-0.651-5.197-0.943-6.072-0.877-0.868 0.069-1.522 0.344-1.963 0.827-0.435 0.484-0.717 0.998-0.848 1.541v0c-0.025 0.105-0.05 0.209-0.075 0.314v0c-0.204 1.107-0.069 1.974 0.404 2.599 0.473 0.626 1.128 1.039 1.965 1.241z" fill="#d7dbde" data-fill-palette-color="primary"></path><path d="M137.035 256.959v0l-1.853 21.193c-0.059 0.671 0.083 1.021 0.425 1.05v0l1.923 0.26-0.072 0.48c-1.048 0.084-2.132 0.077-3.252-0.021v0c-0.233-0.041-0.474-0.18-0.723-0.418-0.249-0.238-0.379-0.533-0.389-0.885v0c-1.295 0.671-2.751 0.935-4.367 0.794v0c-1.569-0.137-2.982-0.707-4.239-1.709v0c-0.708-0.555-1.247-1.386-1.617-2.493-0.369-1.107-0.487-2.424-0.353-3.953v0c0.246-2.816 1.155-4.902 2.726-6.258v0c1.668-1.456 3.481-2.098 5.438-1.927v0c1.2 0.105 2.397 0.524 3.59 1.257v0l0.674-7.715c0.021-0.235-0.033-0.358-0.16-0.369v0l-1.966-0.233 0.08-0.449c1.372-0.076 2.309-0.092 2.811-0.048 0.503 0.044 0.856 0.217 1.06 0.518 0.204 0.295 0.292 0.603 0.264 0.926zM129.2 278.865v0c1.314 0.115 2.597-0.064 3.848-0.535v0l1.179-13.488c-0.895-0.659-1.805-1.029-2.73-1.111v0c-1.851-0.162-3.401 0.415-4.652 1.732-1.251 1.323-1.992 3.306-2.223 5.948v0c-0.408 4.667 1.118 7.152 4.578 7.454z" fill="#d7dbde" data-fill-palette-color="primary"></path><path d="M145.727 272.267v0c0.33 4.653 2.301 6.851 5.914 6.595v0c0.953-0.068 1.96-0.24 3.02-0.518 1.06-0.284 1.734-0.521 2.025-0.71v0l0.254 0.306c-0.474 0.358-1.271 0.684-2.39 0.979-1.113 0.295-2.136 0.475-3.069 0.542-0.94 0.067-1.786 0.029-2.539-0.114-0.759-0.142-1.546-0.434-2.359-0.875-0.807-0.435-1.473-1.167-1.999-2.196-0.531-1.022-0.851-2.295-0.959-3.819v0c-0.202-2.847 0.375-5.074 1.732-6.682v0c1.419-1.68 3.14-2.591 5.161-2.735 2.028-0.144 3.615 0.307 4.762 1.352 1.14 1.039 1.782 2.573 1.926 4.601v0c0.03 0.43 0.033 0.895 0.008 1.396v0l-11.532 0.819c-0.003 0.236 0.011 0.59 0.045 1.059zM155.286 268.896v0c-0.114-1.611-0.564-2.906-1.348-3.882-0.777-0.971-1.78-1.412-3.01-1.325v0c-1.598 0.113-2.894 0.911-3.889 2.392v0c-0.809 1.157-1.255 2.66-1.34 4.508v0l9.628-0.683c0.003-0.243-0.011-0.58-0.041-1.01z" fill="#d7dbde" data-fill-palette-color="primary"></path><path d="M167.906 260.485v0c-1.244 0.352-2.478 1.172-3.702 2.46v0l3.474 13.044 2.393-0.47c0.005 0.02 0.037 0.178 0.096 0.476v0l-6.256 1.698c-0.05-0.189-0.076-0.338-0.078-0.45v0l1.562-0.646c0.13-0.035 0.19-0.151 0.179-0.35v0l-3.659-13.738c-0.077-0.133-0.158-0.188-0.243-0.165v0l-1.901 0.433-0.075-0.439c1.075-0.488 1.902-0.81 2.481-0.964 0.585-0.156 1.018-0.128 1.296 0.083 0.281 0.218 0.463 0.483 0.546 0.795v0l0.102 0.38c1.447-1.549 2.879-2.557 4.293-3.024v0c1.977-0.527 3.474-0.323 4.489 0.612v0c1.531-1.522 3.089-2.54 4.673-3.052v0c1.463-0.39 2.65-0.382 3.559 0.024v0c0.431 0.178 0.852 0.518 1.264 1.021 0.413 0.503 0.725 1.151 0.936 1.945v0l2.9 10.888 2.393-0.47c0.005 0.02 0.034 0.179 0.086 0.479v0l-6.246 1.695c-0.05-0.189-0.079-0.338-0.088-0.447v0l1.572-0.648c0.124-0.033 0.183-0.15 0.179-0.351v0l-2.617-9.825c-0.222-0.833-0.52-1.519-0.894-2.061-0.366-0.536-0.709-0.908-1.028-1.115-0.325-0.199-0.692-0.324-1.103-0.375v0c-0.46-0.052-0.93-0.013-1.412 0.114v0c-1.289 0.364-2.567 1.227-3.835 2.589v0c0.429 0.513 0.749 1.166 0.961 1.959v0l2.9 10.889 2.383-0.468c0.005 0.02 0.037 0.178 0.096 0.476v0l-6.285 1.706-0.078-0.45 1.562-0.646c0.144-0.059 0.211-0.189 0.2-0.387v0l-2.617-9.825c-0.272-1.021-0.629-1.825-1.07-2.411-0.448-0.584-0.931-0.919-1.448-1.004v0c-0.708-0.146-1.354-0.141-1.94 0.015z" fill="#d7dbde" data-fill-palette-color="primary"></path><path d="M191.611 253.501v0l5.789 12.985 2.288-0.844c0.008 0.018 0.065 0.17 0.17 0.455v0l-5.908 2.667c-0.079-0.178-0.129-0.322-0.148-0.431v0l1.44-0.885c0.123-0.055 0.163-0.18 0.12-0.375v0l-5.788-12.984c-0.097-0.119-0.186-0.16-0.266-0.125v0l-1.808 0.729-0.144-0.422c0.984-0.652 1.753-1.102 2.306-1.349 0.547-0.244 0.975-0.284 1.284-0.119 0.312 0.171 0.534 0.403 0.665 0.698zM188.3 248.776c-0.393 0.175-0.753 0.188-1.078 0.038-0.325-0.15-0.578-0.428-0.758-0.833-0.181-0.406-0.212-0.782-0.095-1.13 0.118-0.347 0.373-0.609 0.767-0.784 0.393-0.175 0.768-0.195 1.123-0.059 0.356 0.136 0.628 0.417 0.817 0.841 0.189 0.424 0.205 0.808 0.049 1.15-0.151 0.34-0.426 0.599-0.825 0.777z" fill="#d7dbde" data-fill-palette-color="primary"></path><path d="M204.444 245.272v0c-1.574 0.948-2.475 2.328-2.704 4.14-0.229 1.812 0.336 3.845 1.694 6.099v0c2.418 4.013 5.152 5.1 8.201 3.262v0c1.199-0.723 2.156-1.456 2.871-2.2 0.709-0.741 1.083-1.163 1.123-1.267v0l0.387 0.192c-0.26 0.534-0.824 1.188-1.694 1.963-0.869 0.775-1.701 1.402-2.497 1.882-0.796 0.479-1.567 0.83-2.313 1.052-0.746 0.222-1.577 0.317-2.491 0.287-0.911-0.025-1.836-0.379-2.774-1.064-0.944-0.681-1.813-1.678-2.605-2.992v0c-1.459-2.422-1.94-4.623-1.444-6.604v0c0.531-2.261 1.849-4.026 3.954-5.293v0c0.669-0.403 1.43-0.744 2.284-1.023 0.851-0.269 1.593-0.343 2.224-0.22v0l2.189 3.632-0.413 0.508-1.895-2.831c-0.663-0.174-1.369-0.224-2.118-0.15-0.749 0.074-1.409 0.283-1.979 0.627z" fill="#d7dbde" data-fill-palette-color="primary"></path><path d="M218.204 224.989v0l6.252 6.156c0.607-3.379 1.972-5.625 4.096-6.736v0c0.469-0.265 0.944-0.431 1.424-0.497 0.471-0.066 1.009 0.006 1.615 0.216 0.616 0.209 1.216 0.602 1.801 1.178v0l8.03 7.906 1.822-1.621c0.014 0.014 0.12 0.137 0.317 0.369v0l-4.519 4.633c-0.139-0.137-0.24-0.25-0.303-0.34v0l1.025-1.358c0.09-0.091 0.082-0.222-0.024-0.392v0l-7.224-7.112c-0.6-0.59-1.198-1.019-1.795-1.286-0.602-0.271-1.107-0.396-1.516-0.374-0.414 0.018-0.815 0.118-1.205 0.303v0c-0.55 0.252-0.962 0.545-1.235 0.88v0c-0.954 1.026-1.63 2.528-2.028 4.507v0l9.367 9.223 1.822-1.621c0.014 0.014 0.122 0.135 0.325 0.362v0l-4.527 4.64c-0.139-0.137-0.238-0.253-0.295-0.347v0l1.018-1.351c0.108-0.139 0.062-0.307-0.14-0.505v0l-15.692-15.45c-0.168-0.165-0.297-0.202-0.386-0.111v0l-1.411 1.346-0.295-0.348c0.678-0.967 1.229-1.666 1.654-2.097 0.42-0.427 0.807-0.618 1.16-0.573 0.348 0.04 0.637 0.174 0.867 0.4z" fill="#d7dbde" data-fill-palette-color="primary"></path><path d="M234.819 217.61l-1.099 1.277-0.419-0.247 2.496-3.589 9.206 6.498c0.687 0.485 1.351 0.805 1.991 0.961 0.636 0.161 1.153 0.204 1.551 0.131 0.398-0.073 0.77-0.227 1.116-0.461v0c0.525-0.371 0.89-0.735 1.094-1.094v0c0.74-1.084 1.051-2.702 0.931-4.855v0l-10.237-7.226c-0.265-0.08-0.495-0.016-0.691 0.192v0l-1.105 1.284c-0.116-0.057-0.254-0.142-0.413-0.255v0l2.496-3.589 12.002 8.472c0.469 0.281 0.79 0.298 0.965 0.051v0l1.198-1.54 0.379 0.305c-0.455 0.948-1.006 1.881-1.655 2.799v0c-0.168 0.203-0.447 0.348-0.838 0.434-0.395 0.092-0.76 0.02-1.095-0.217v0l-0.478-0.337c-0.056 2.367-0.588 4.265-1.598 5.694v0c-0.423 0.599-1.071 1.197-1.944 1.791v0c-0.569 0.398-1.234 0.563-1.994 0.496-0.764-0.061-1.55-0.378-2.358-0.948v0l-8.785-6.201c-0.088-0.062-0.205-0.071-0.353-0.026-0.148 0.035-0.27 0.102-0.363 0.2z" fill="#d7dbde" data-fill-palette-color="primary"></path><path d="M240.291 194.872v0l7.265 3.507c-0.39-1.623-0.238-3.153 0.456-4.589v0c0.638-1.321 1.645-2.371 3.022-3.149v0c0.747-0.402 1.689-0.564 2.825-0.487 1.133 0.084 2.382 0.455 3.746 1.114v0c2.582 1.247 4.216 2.824 4.902 4.732v0c0.774 2.175 0.622 4.378-0.455 6.608v0c-0.404 0.837-0.873 1.638-1.407 2.404-0.537 0.757-0.96 1.23-1.267 1.418v0l-20.232-9.767c-0.175-0.04-0.282-0.02-0.319 0.058v0l-0.915 1.756-0.392-0.234c0.415-1.309 0.733-2.191 0.952-2.646 0.219-0.455 0.506-0.724 0.861-0.806 0.348-0.086 0.668-0.059 0.958 0.081zM248.111 198.647v0l12.329 5.953c0.427-0.436 0.811-1.006 1.151-1.71v0c0.919-1.903 0.959-3.697 0.119-5.38-0.836-1.689-2.461-3.116-4.873-4.281v0c-2.643-1.276-4.675-1.611-6.097-1.004v0c-1.11 0.473-1.923 1.243-2.438 2.31-0.518 1.073-0.582 2.444-0.191 4.112z" fill="#d7dbde" data-fill-palette-color="primary"></path><path d="M3.501 143.873c0-5.124 4.153-9.277 9.277-9.277 5.124 0 9.277 4.153 9.277 9.277 0 5.124-4.153 9.277-9.277 9.277-5.124 0-9.277-4.153-9.277-9.277z" fill="#d7dbde" data-fill-palette-color="primary"></path><path d="M257.945 143.873c0-5.124 4.153-9.277 9.277-9.277 5.124 0 9.277 4.153 9.277 9.277 0 5.124-4.153 9.277-9.277 9.277-5.124 0-9.277-4.153-9.277-9.277z" fill="#d7dbde" data-fill-palette-color="primary"></path></g><g id="text-1"></g></svg></g></svg></g></svg></g></svg></g><defs></defs></svg><rect width="280" height="280" fill="none" stroke="none" visibility="hidden"></rect></g></svg></g></svg>